<svg width="101" height="32" viewBox="0 0 101 32" fill="none" xmlns="http://www.w3.org/2000/svg">
<g clip-path="url(#clip0_1_100)">
<path d="M43.1646 0L26.2846 12.48C25.4668 9.39131 23.6356 6.66666 21.0846 4.74286C18.4772 2.7729 15.3011 1.70214 12.0332 1.69143H-0.00109863V30.3314H12.0789C15.3731 30.3912 18.5922 29.345 21.2218 27.36C23.7639 25.4194 25.5534 22.6563 26.2846 19.5429L43.1646 32L59.9989 19.5429V30.3314H78.9932V24.5143H66.4217V1.65714H59.5646V12.4571L43.5646 24.9257L40.136 22.0229L47.9075 16.2057L56.1132 9.97714L51.3589 6.24L35.4275 18.2857L31.9989 15.3829L47.9989 3.74857L43.1646 0ZM6.46747 7.48571H11.6446C12.7112 7.48345 13.7664 7.70539 14.7418 8.13714C15.7226 8.57449 16.6109 9.19513 17.3589 9.96572C18.1328 10.7654 18.7492 11.7037 19.176 12.7314C20.0331 14.9052 20.0331 17.3233 19.176 19.4971C18.784 20.5257 18.2026 21.4716 17.4618 22.2857C16.7342 23.1036 15.8476 23.7647 14.856 24.2286C13.8249 24.7067 12.7012 24.9525 11.5646 24.9486H6.46747V7.48571ZM100.57 24.5143V30.3314H81.576V1.66857H88.4903V24.5257H100.57V24.5143Z" fill="#3D544D"/>
</g>
<defs>
<clipPath id="clip0_1_100">
<rect width="100.571" height="32" fill="white"/>
</clipPath>
</defs>
</svg>
