<svg width="1448" height="5082" viewBox="0 0 1448 5082" fill="none" xmlns="http://www.w3.org/2000/svg">
<path d="M891.3 0.8235C991.805 -0.6771 1193.68 19.5918 1070.47 175.336C916.448 370.015 1462.11 522.219 1374.1 370.015C1286.09 217.811 617.216 391.253 1158.47 649.646C1591.48 856.36 740.429 910.399 260.777 911.579C92.9045 919.249 -164.75 996.193 147.614 1242.6C538.07 1550.61 1244.53 1681.61 1201.5 1869.24C1158.47 2056.88 -385.629 2872.98 147.614 2872.98C1320.82 2872.98 251.908 3344.9 712.79 3505.02C853.342 3553.85 1447.78 3471.18 1416.83 3781.03C1359.16 4358.34 -60.0535 4084.25 96.7553 4401.07C292.766 4797.09 1416.83 4945.1 1446.83 5081.11" stroke="#2BB32A" stroke-width="1.5" stroke-linecap="square"/>
</svg>
