<svg width="44" height="30" viewBox="0 0 44 30" fill="none" xmlns="http://www.w3.org/2000/svg">
<path fill-rule="evenodd" clip-rule="evenodd" d="M23.8576 24.4846C25.9772 22.6143 26.9333 19.5258 26.1983 15.7443C25.4632 11.9627 23.1842 8.24538 20.1424 5.37178C22.0398 3.69783 24.8708 3.00008 28.2558 3.65806C35.4224 5.0511 42.3616 11.9903 43.7547 19.1569C45.1477 26.3235 40.4671 31.004 33.3006 29.611C29.9156 28.953 26.5803 27.0566 23.8576 24.4846ZM23.8576 24.4846C21.9601 26.1586 19.1292 26.8563 15.7442 26.1983C8.57759 24.8053 1.63837 17.8661 0.245329 10.6995C-1.14771 3.53296 3.53285 -1.1476 10.6994 0.245439C14.0844 0.903417 17.4197 2.79976 20.1424 5.37178C18.0228 7.24211 17.0667 10.3306 17.8017 14.1121C18.5368 17.8937 20.8158 21.611 23.8576 24.4846Z" fill="#424242"/>
</svg>
