<svg width="48" height="26" viewBox="0 0 48 26" fill="none" xmlns="http://www.w3.org/2000/svg">
<path fill-rule="evenodd" clip-rule="evenodd" d="M20.499 22.5738C24.1152 20.1975 27.0805 16.7884 28.4594 13C29.8382 9.21157 29.3545 5.80251 27.4681 3.42624C30.705 1.2994 34.4649 0 38.0737 0C45.7141 0 49.7896 5.82043 47.1764 13C44.5633 20.1796 36.2508 26 28.6105 26C25.0017 26 22.1877 24.7006 20.499 22.5738ZM20.499 22.5738C17.2621 24.7006 13.5022 26 9.89342 26C2.25307 26 -1.82245 20.1796 0.790709 13C3.40386 5.82043 11.7163 0 19.3567 0C22.9654 0 25.7794 1.2994 27.4681 3.42624C23.8519 5.80251 20.8866 9.21157 19.5077 13C18.1289 16.7884 18.6126 20.1975 20.499 22.5738Z" fill="#424242"/>
</svg>
