<svg width="44" height="27" viewBox="0 0 44 27" fill="none" xmlns="http://www.w3.org/2000/svg">
<path fill-rule="evenodd" clip-rule="evenodd" d="M22.3371 22.7647C24.8623 20.3683 26.3775 16.9304 26.244 13.1099C26.1106 9.28948 24.3554 5.85158 21.6628 3.45522C23.9232 1.31039 26.9942 0 30.4161 0C37.6608 0 43.739 5.86965 43.9919 13.1099C44.2447 20.3502 38.5764 26.2199 31.3317 26.2199C27.9098 26.2199 24.7473 24.9095 22.3371 22.7647ZM22.3371 22.7647C20.0768 24.9095 17.0058 26.2199 13.5839 26.2199C6.33919 26.2199 0.260982 20.3502 0.00814565 13.1099C-0.244691 5.86965 5.42357 0 12.6683 0C16.0902 0 19.2527 1.31039 21.6628 3.45522C19.1377 5.85158 17.6225 9.28948 17.756 13.1099C17.8894 16.9304 19.6446 20.3683 22.3371 22.7647Z" fill="white"/>
</svg>
