<svg width="58" height="41" viewBox="0 0 58 41" fill="none" xmlns="http://www.w3.org/2000/svg">
<path fill-rule="evenodd" clip-rule="evenodd" d="M25.5186 32.9073C29.6943 30.7255 32.9783 26.8702 34.2938 21.9605C35.6094 17.0508 34.693 12.07 32.1676 8.09271C35.9054 6.14003 40.3595 5.52861 44.7543 6.7062C54.0588 9.19933 59.5807 18.7636 57.0876 28.0681C54.5945 37.3726 45.0302 42.8945 35.7257 40.4014C31.3309 39.2238 27.7793 36.4673 25.5186 32.9073ZM25.5186 32.9073C21.7808 34.86 17.3267 35.4714 12.9319 34.2938C3.62741 31.8007 -1.89451 22.2364 0.598623 12.9319C3.09176 3.62741 12.656 -1.89452 21.9605 0.598614C26.3553 1.7762 29.907 4.53275 32.1676 8.09271C27.9919 10.2745 24.708 14.1298 23.3924 19.0395C22.0769 23.9492 22.9932 28.93 25.5186 32.9073Z" fill="white"/>
</svg>
