<svg width="237" height="32" viewBox="0 0 237 32" fill="none" xmlns="http://www.w3.org/2000/svg">
<g clip-path="url(#clip0_1_96)">
<path d="M17.6638 3.71196C17.6638 1.15196 15.2318 0.511963 13.3118 0.511963V0.895963C14.4638 0.895963 15.3598 1.27996 15.3598 2.17596C15.3598 2.68796 14.9758 3.45596 13.8238 3.45596C12.9278 3.45596 11.0078 2.94396 9.59976 2.43196C7.93576 1.79196 6.39976 1.27996 5.11976 1.27996C2.55976 1.27996 0.767756 3.19996 0.767756 5.37596C0.767756 7.29596 2.17576 7.93596 2.68776 8.19196L2.81576 7.93596C2.55976 7.67996 2.17576 7.42396 2.17576 6.65596C2.17576 6.14396 2.68776 5.24796 3.96776 5.24796C5.11976 5.24796 6.65576 5.75996 8.70376 6.39996C10.4958 6.91196 12.4158 7.29596 13.4398 7.42396V11.392L11.5198 13.056V13.184L13.4398 14.848V20.352C12.4158 20.992 11.2638 21.12 10.2398 21.12C8.31976 21.12 6.65576 20.608 5.24776 19.072L10.4958 16.512V7.67996L4.09576 10.496C4.60776 8.83196 6.01576 7.67996 7.42376 6.91196L7.29576 6.52796C3.45576 7.55196 -0.000244141 11.136 -0.000244141 15.488C-0.000244141 20.608 4.22376 24.448 8.95976 24.448C14.0798 24.448 17.4078 20.352 17.4078 16.128H17.1518C16.3838 17.792 15.2318 19.328 13.8238 20.096V14.848L15.8718 13.184V13.056L13.8238 11.392V7.42396C15.7438 7.42396 17.6638 6.14396 17.6638 3.71196ZM6.52776 17.792L4.99176 18.56C4.09576 17.408 3.58376 15.872 3.58376 13.696C3.58376 12.8 3.58376 11.776 3.83976 11.008L6.52776 9.85596V17.792ZM20.0958 20.736L18.4318 22.016L18.6878 22.272L19.4558 21.632L22.2718 24.192L26.1118 21.632L25.9838 21.376L24.9598 22.016L23.6798 20.736V12.032L24.7038 11.264L26.8798 13.056V20.864C26.8798 25.728 25.8558 26.496 23.6798 27.264V27.648C27.2638 27.776 30.5918 26.624 30.5918 20.352V11.904L31.7438 11.008L31.4878 10.752L30.4638 11.52L27.2638 8.83196L23.6798 11.52V1.02396H23.4238L18.9438 4.09596V4.35196C19.4558 4.60796 20.2238 4.86396 20.2238 6.27196L20.0958 20.736ZM43.5198 19.328L40.3198 21.76L37.1198 19.2V17.664L43.1358 13.568V13.44L40.0638 8.83196L33.4078 12.416V20.864L32.1278 21.888L32.3838 22.144L33.5358 21.248L37.8878 24.448L43.6478 19.84L43.5198 19.328ZM37.1198 17.152V10.88L37.3758 10.752L40.1918 15.232L37.1198 17.152ZM67.9678 2.55996C67.9678 2.17596 67.8398 1.79196 67.7118 1.40796H67.4558C67.0718 2.43196 66.5598 2.94396 65.2798 2.94396C64.1278 2.94396 63.3598 2.30396 62.8478 1.79196L59.1358 6.01596L59.3918 6.27196L60.6718 5.11996C61.4398 5.75996 62.0798 6.27196 63.8718 6.39996V17.024L56.3198 4.09596C55.6798 3.07196 54.7838 1.66396 52.9918 1.66396C50.9438 1.66396 49.1518 3.45596 49.4078 6.27196H49.7918C49.9198 5.50396 50.3038 4.60796 51.1998 4.60796C51.8398 4.60796 52.4798 5.24796 52.8638 5.88796V10.112C50.5598 10.112 49.0238 11.136 49.0238 13.056C49.0238 14.08 49.5358 15.616 51.0718 16V15.744C50.8158 15.488 50.6878 15.232 50.6878 14.848C50.6878 14.208 51.1998 13.696 52.0958 13.696H52.7358V19.072C50.0478 19.072 47.8718 20.608 47.8718 23.168C47.8718 25.6 49.9198 26.752 52.2238 26.624V26.368C50.8158 26.24 50.1758 25.6 50.1758 24.704C50.1758 23.552 50.9438 23.04 51.9678 23.04C52.9918 23.04 53.8878 23.68 54.5278 24.448L58.2398 20.352L57.9838 20.096L57.0878 21.12C55.6798 19.84 54.9118 19.456 53.2478 19.2V6.39996L63.4878 24.32H64.2558V6.39996C66.1758 6.27196 67.9678 4.73596 67.9678 2.55996ZM77.3118 19.328L74.1118 21.76L70.9118 19.2V17.664L76.9278 13.568V13.44L73.8558 8.83196L67.1998 12.416V20.864L65.9198 21.888L66.1758 22.144L67.3278 21.248L71.6798 24.448L77.4398 19.84L77.3118 19.328ZM70.9118 17.152V10.88L71.1678 10.752L73.9838 15.232L70.9118 17.152ZM98.1758 10.24L97.2798 10.88L94.8478 8.83196L92.0318 11.392L93.1838 12.544V22.144L90.1118 20.224V12.288L91.1358 11.648L88.1918 8.83196L85.3758 11.392L86.5278 12.544V21.76L86.1438 22.016L83.4558 20.096V12.416C83.4558 10.624 82.5598 10.112 81.5358 9.47196C80.6398 8.83196 80.1278 8.44796 80.1278 7.55196C80.1278 6.78396 80.8958 6.39996 81.2798 6.14396V5.88796C80.2558 5.88796 77.5678 6.91196 77.5678 9.34396C77.5678 10.624 78.2078 11.136 78.8478 11.776C79.4878 12.416 80.1278 12.928 80.1278 14.08V21.504L78.7198 22.528L78.9758 22.784L80.2558 21.76L83.1998 24.32L86.3998 22.144L89.9838 24.32L96.7678 20.352V11.776L98.4318 10.496L98.1758 10.24ZM121.984 3.19996L120.704 4.35196L117.888 1.79196L113.664 4.86396V2.04796H113.28L113.408 22.784C113.024 22.784 111.872 22.528 110.976 22.272L110.72 4.99196C110.72 3.71196 109.824 1.91996 107.52 1.91996C105.216 1.91996 103.68 3.71196 103.68 5.50396H104.064C104.192 4.73596 104.576 4.09596 105.344 4.09596C106.112 4.09596 106.752 4.60796 106.752 6.27196V11.264C104.448 11.392 103.04 12.672 103.04 14.336C103.04 15.36 103.552 16.896 105.088 16.896V16.64C104.576 16.384 104.448 16 104.448 15.744C104.448 14.976 105.088 14.72 106.112 14.72H106.624V22.656C104.704 23.296 103.936 24.704 103.936 26.24C103.936 28.416 105.6 29.952 108.16 29.952C109.952 29.952 111.488 29.696 113.024 29.312C114.304 29.056 115.968 28.672 116.736 28.672C117.76 28.672 118.144 29.184 118.144 29.824C118.144 30.72 117.76 31.104 117.248 31.232V31.488C119.296 31.104 120.576 29.824 120.576 27.904C120.576 25.984 118.656 24.832 116.608 24.832C115.584 24.832 113.408 25.216 111.872 25.472C110.08 25.856 108.288 26.112 107.776 26.112C106.88 26.112 105.856 25.728 105.856 24.448C105.856 23.424 106.752 22.528 108.928 22.528C110.08 22.528 111.488 22.656 112.896 23.04C114.432 23.424 115.84 23.808 117.12 23.808C119.04 23.808 120.704 23.168 120.704 20.48V4.73596L122.24 3.45596L121.984 3.19996ZM116.736 11.008C116.352 11.392 115.84 11.776 115.2 11.776C114.56 11.776 113.92 11.392 113.664 11.008V5.37596L114.944 4.47996L116.736 6.14396V11.008ZM116.736 14.848C116.48 14.592 115.84 14.208 115.2 14.208C114.56 14.208 113.92 14.592 113.664 14.848V11.52C113.92 11.776 114.56 12.16 115.2 12.16C115.84 12.16 116.48 11.776 116.736 11.52V14.848ZM116.736 20.864C116.736 21.888 116.096 22.912 114.688 22.912H113.664V15.36C113.92 15.104 114.56 14.72 115.2 14.72C115.84 14.72 116.352 15.104 116.736 15.36V20.864ZM134.272 11.776L130.176 8.83196L123.904 12.416V20.736L122.624 21.76L122.752 22.016L123.776 21.248L127.872 24.32L134.272 20.48V11.776ZM127.36 19.84V10.624L130.56 12.928V22.016L127.36 19.84ZM146.432 9.08796H146.176C145.792 9.34396 145.408 9.59996 145.024 9.59996C144.512 9.59996 143.872 9.34396 143.616 8.95996H143.36L141.184 11.392L139.008 8.95996L135.168 11.52L135.296 11.776L136.32 11.136L137.6 12.544V20.608L135.936 21.888L136.192 22.144L136.96 21.504L140.032 24.064L144 21.376L143.872 21.12L142.72 21.76L141.184 20.48V11.52C141.824 12.16 142.592 12.8 143.488 12.8C145.28 12.928 146.304 11.136 146.432 9.08796ZM161.792 21.376L157.44 24.32L151.552 15.36L155.776 8.83196H156.032C156.544 9.34396 157.312 9.85596 158.208 9.85596C159.104 9.85596 159.744 9.34396 160.128 8.83196H160.384C160.256 11.392 158.464 12.928 157.184 12.928C155.904 12.928 155.264 12.288 154.496 11.904L154.112 12.544L160.512 22.016L161.792 21.248V21.376ZM147.712 20.736L146.048 22.016L146.304 22.272L147.072 21.632L149.888 24.192L153.728 21.632L153.472 21.376L152.448 22.016L151.168 20.736V1.02396H151.04L146.432 4.09596V4.35196C146.944 4.60796 147.712 4.73596 147.712 6.27196V20.736ZM183.04 3.71196C183.04 1.15196 180.608 0.511963 178.688 0.511963V0.895963C179.84 0.895963 180.736 1.27996 180.736 2.17596C180.736 2.68796 180.352 3.45596 179.2 3.45596C178.304 3.45596 176.384 2.94396 174.976 2.43196C173.312 1.91996 171.776 1.40796 170.496 1.40796C167.936 1.40796 166.144 3.32796 166.144 5.50396C166.144 7.42396 167.552 8.06396 168.064 8.31996L168.192 8.06396C167.808 7.80796 167.424 7.55196 167.424 6.78396C167.424 6.27196 167.936 5.37596 169.216 5.37596C170.368 5.37596 171.904 5.88796 173.952 6.52796C175.744 7.03996 177.664 7.42396 178.688 7.55196V11.52L176.768 13.184V13.312L178.688 14.976V20.48C177.664 21.12 176.512 21.248 175.488 21.248C173.568 21.248 171.904 20.736 170.496 19.2L175.744 16.64V7.67996L169.344 10.496C169.984 8.83196 171.392 7.67996 172.672 6.78396L172.544 6.52796C168.704 7.55196 165.248 11.008 165.248 15.36C165.248 20.48 169.472 24.32 174.208 24.32C179.328 24.32 182.656 20.224 182.656 16H182.4C181.632 17.664 180.48 19.2 179.072 19.968V14.72L181.12 13.056V12.928L179.2 11.264V7.42396C181.12 7.42396 183.04 6.14396 183.04 3.71196ZM171.904 17.792L170.368 18.56C169.472 17.408 168.96 15.872 168.96 13.696C168.96 12.8 169.088 11.776 169.344 11.008L172.032 9.85596L171.904 17.792ZM187.52 2.43196H187.392L184.832 4.60796V4.73596L187.008 7.16796H187.264L189.824 4.99196V4.86396L187.52 2.43196ZM191.36 21.376L190.336 22.016L189.056 20.736V11.904L190.336 11.008L190.08 10.752L189.184 11.52L186.88 8.83196L183.168 11.392L183.424 11.776L184.32 11.136L185.472 12.544V20.864L183.808 22.144L183.936 22.4L184.832 21.76L187.648 24.32L191.488 21.76L191.36 21.376ZM212.736 21.248L211.84 21.888L210.432 20.608V11.904L211.712 10.88L211.456 10.624L210.432 11.52L207.488 8.83196L203.648 11.52L200.704 8.83196L197.12 11.52L194.816 8.83196L191.104 11.392L191.232 11.776L192.128 11.136L193.408 12.544V20.864L192.384 21.888L195.328 24.32L198.144 21.76L196.992 20.608V11.904L198.144 11.136L200.064 12.928V20.608L199.04 21.632L201.984 24.064L204.8 21.504L203.648 20.352V11.904L204.672 11.264L206.72 13.056V20.736L205.824 21.632L208.768 24.32L212.736 21.632V21.248ZM223.872 19.328L220.672 21.76L217.472 19.2V17.664L223.488 13.568V13.44L220.416 8.83196L213.76 12.416V21.12L218.24 24.32L224 19.712L223.872 19.328ZM217.472 17.152V10.88L217.728 10.752L220.544 15.232L217.472 17.152ZM235.52 16L233.088 14.08C234.752 12.672 235.392 10.752 235.392 9.47196V8.70396H235.136C234.88 9.34396 234.368 9.98396 233.344 9.98396C232.32 9.98396 231.68 9.47196 231.04 8.70396L225.28 11.904V16.512L227.456 18.176C225.28 20.096 224.896 21.376 224.896 22.4C224.896 23.68 225.536 24.576 226.56 24.96L226.688 24.704C226.432 24.448 226.176 24.32 226.176 23.68C226.176 23.296 226.688 22.656 227.712 22.656C228.992 22.656 229.76 23.552 230.144 23.936L235.648 20.608V16H235.52ZM234.112 12.16C233.216 13.696 231.296 15.232 230.144 16L228.736 14.848V10.368C229.248 11.648 230.656 12.672 232.064 12.672C232.96 12.672 233.472 12.544 234.112 12.16ZM231.936 22.4C231.296 20.992 229.76 19.968 228.224 19.968C227.84 19.968 226.816 19.968 225.792 20.608C226.432 19.584 228.096 17.792 230.272 16.512L231.808 17.792L231.936 22.4Z" fill="#3D544D"/>
</g>
<defs>
<clipPath id="clip0_1_96">
<rect width="236.8" height="32" fill="white"/>
</clipPath>
</defs>
</svg>
