<svg width="91" height="32" viewBox="0 0 91 32" fill="none" xmlns="http://www.w3.org/2000/svg">
<g clip-path="url(#clip0_1_92)">
<path fill-rule="evenodd" clip-rule="evenodd" d="M15.1335 9.37931C15.1321 8.21965 14.6706 7.10794 13.8503 6.28819C13.03 5.46844 11.918 5.00763 10.7584 5.0069H4.9901V13.8097H10.7584C11.3379 13.8108 11.9119 13.6966 12.4469 13.4737C12.9818 13.2508 13.467 12.9236 13.8743 12.5112C14.2815 12.0989 14.6026 11.6096 14.8188 11.0719C15.035 10.5342 15.142 9.95879 15.1335 9.37931ZM10.7584 0C13.2481 3.71001e-08 15.6359 0.989047 17.3964 2.74956C19.1569 4.51008 20.146 6.89784 20.146 9.38759C20.146 11.8773 19.1569 14.2651 17.3964 16.0256C15.6359 17.7861 13.2481 18.7752 10.7584 18.7752H4.9901V31.6662H-0.000244141V0H10.7584ZM36.5294 18.4414C36.2063 17.1949 35.4771 16.0916 34.4569 15.3058C33.4368 14.52 32.184 14.0964 30.8963 14.1021C28.1377 14.1021 25.8756 15.8621 25.2549 18.4414H36.5294ZM30.946 9.68C37.4011 9.68 41.9087 14.8193 41.9087 22.1738V22.571H25.2549C26.1404 25.3297 28.5322 27.1614 31.3487 27.1614C34.2839 27.1614 36.4991 25.3131 37.3129 24.5186L37.6218 24.2207L40.6204 27.8786L40.3611 28.1324C37.8342 30.6152 34.6204 31.9945 31.3073 31.9945C24.9625 31.9945 20.0108 26.9655 20.0108 20.5435C19.9993 19.1087 20.2743 17.6862 20.8198 16.3592C21.3653 15.0322 22.1703 13.8274 23.1875 12.8156C24.2047 11.8038 25.4137 11.0052 26.7436 10.4668C28.0735 9.92835 29.4975 9.66086 30.9322 9.68H30.946ZM50.0632 3.37931V10H56.8853V14.4772H50.0494V23.8566C50.0446 24.2271 50.1139 24.5948 50.2532 24.9381C50.3926 25.2815 50.5991 25.5935 50.8607 25.8559C51.1224 26.1183 51.4338 26.3258 51.7767 26.4661C52.1197 26.6064 52.4872 26.6768 52.8577 26.6731H56.7887V31.68H52.7749C48.0853 31.68 45.0508 28.5931 45.0508 23.8152V3.40138L50.0632 3.37931ZM76.066 20.7972C76.0545 19.5858 75.6848 18.4048 75.0035 17.4031C74.3221 16.4014 73.3596 15.6237 72.237 15.168C71.1145 14.7123 69.8823 14.599 68.6955 14.8423C67.5087 15.0857 66.4204 15.6748 65.5678 16.5354C64.7152 17.3961 64.1363 18.4898 63.9041 19.6789C63.672 20.8679 63.7969 22.0991 64.2631 23.2172C64.7293 24.3354 65.516 25.2906 66.5241 25.9626C67.5322 26.6345 68.7165 26.9931 69.928 26.9931C70.7372 26.9891 71.5376 26.8256 72.2835 26.512C73.0294 26.1983 73.7061 25.7407 74.275 25.1652C74.8438 24.5897 75.2935 23.9077 75.5985 23.1582C75.9035 22.4087 76.0576 21.6064 76.0522 20.7972H76.066ZM76.6177 12.1379V10.0138H80.9873V31.6662H76.6342V29.5421C74.7439 31.1384 72.347 32.0097 69.8729 32C68.3925 32.0233 66.9224 31.7518 65.548 31.2014C64.1736 30.651 62.9225 29.8327 61.8674 28.7941C60.8123 27.7555 59.9744 26.5173 59.4025 25.1518C58.8306 23.7862 58.536 22.3205 58.536 20.84C58.536 19.3595 58.8306 17.8938 59.4025 16.5282C59.9744 15.1627 60.8123 13.9245 61.8674 12.8859C62.9225 11.8473 64.1736 11.029 65.548 10.4786C66.9224 9.92819 68.3925 9.65673 69.8729 9.68C72.3311 9.68977 74.7085 10.5593 76.5929 12.1379H76.6177ZM85.517 31.6662V1.66897H90.4825V31.6662H85.517Z" fill="#3D544D"/>
</g>
<defs>
<clipPath id="clip0_1_92">
<rect width="90.4828" height="32" fill="white"/>
</clipPath>
</defs>
</svg>
