<svg width="108" height="32" viewBox="0 0 108 32" fill="none" xmlns="http://www.w3.org/2000/svg">
<g clip-path="url(#clip0_1_94)">
<path d="M26.6881 31.9999L86.4776 26.8178H21.506L26.6881 31.9999Z" fill="#3D544D"/>
<path d="M100.34 5.44123C99.1132 5.46988 97.921 5.85228 96.9066 6.54245V5.8299H92.8904V23.4493H96.9066V13.1497C96.8783 12.6985 96.9428 12.2462 97.096 11.8209C97.2492 11.3955 97.488 11.0061 97.7975 10.6765C98.1071 10.347 98.4808 10.0843 98.8958 9.90479C99.3107 9.72525 99.7581 9.63263 100.21 9.63263C100.662 9.63263 101.11 9.72525 101.525 9.90479C101.94 10.0843 102.313 10.347 102.623 10.6765C102.932 11.0061 103.171 11.3955 103.324 11.8209C103.478 12.2462 103.542 12.6985 103.514 13.1497V23.5141H107.53V13.1497C107.53 8.87443 104.615 5.44123 100.34 5.44123Z" fill="#3D544D"/>
<path d="M83.6271 5.37655C78.9632 5.37655 75.6595 9.45752 75.6595 14.6397C75.6595 20.081 79.8053 23.9029 84.0158 23.9029C86.1535 23.9029 88.8093 23.1903 91.0765 19.9515L87.5138 17.8786C84.7931 21.8948 80.1939 19.8867 79.6757 15.8057H91.2061C92.2425 9.58708 88.1616 5.37655 83.6271 5.37655ZM79.9348 12.3725C80.7769 8.29153 86.3478 8.03242 87.1251 12.3725H79.9348Z" fill="#3D544D"/>
<path d="M67.1089 17.6194C67.0732 18.4269 67.2005 19.2332 67.4833 19.9904C67.766 20.7476 68.1984 21.44 68.7546 22.0264C69.3108 22.6129 69.9794 23.0812 70.7206 23.4036C71.4617 23.726 72.2602 23.8958 73.0684 23.9028C74.4339 23.855 75.7675 23.4771 76.9551 22.8016L74.364 19.3036C73.9661 19.5875 73.4923 19.7454 73.0037 19.7571C72.7367 19.7495 72.4742 19.687 72.2325 19.5735C71.9908 19.46 71.7751 19.2979 71.5989 19.0973C71.4226 18.8967 71.2896 18.662 71.208 18.4077C71.1265 18.1534 71.0983 17.8851 71.1251 17.6194V10.0405H74.5583V5.82993H71.1251V1.42507H67.1089V5.82993H64.9713V10.0405H67.1089V17.6194Z" fill="#3D544D"/>
<path d="M56.1618 23.9028C57.3883 23.8742 58.5805 23.4918 59.5949 22.8016V23.4494H63.6111V5.82996H59.5949V16.1943C59.6232 16.6456 59.5588 17.0978 59.4055 17.5232C59.2523 17.9486 59.0135 18.338 58.704 18.6676C58.3944 18.9971 58.0207 19.2598 57.6057 19.4393C57.1908 19.6188 56.7434 19.7114 56.2913 19.7114C55.8392 19.7114 55.3918 19.6188 54.9769 19.4393C54.5619 19.2598 54.1882 18.9971 53.8786 18.6676C53.5691 18.338 53.3303 17.9486 53.1771 17.5232C53.0239 17.0978 52.9594 16.6456 52.9877 16.1943V5.82996H48.9715V16.1943C48.9715 20.4696 51.8864 23.9028 56.1618 23.9028Z" fill="#3D544D"/>
<path d="M37.8946 16.2591L43.8541 23.5142H49.425L41.4574 14.1215L48.3238 5.82996H42.7529L37.8946 11.9838V0H33.8136V23.5142H37.8946V16.2591Z" fill="#3D544D"/>
<path d="M27.53 22.6721V23.4494H31.5462V5.82999H27.53V6.60732C26.4355 5.81751 25.1226 5.38742 23.7729 5.37655C19.2385 5.37655 15.7405 9.5223 15.7405 14.6397C15.7405 19.7571 19.1737 23.9029 23.7729 23.9029C25.1242 23.9021 26.4401 23.471 27.53 22.6721ZM19.8215 14.7045C19.8215 11.9191 21.4409 9.71663 23.7081 9.71663C25.9753 9.71663 27.53 11.9191 27.53 14.7045C27.53 17.4899 25.9753 19.6923 23.7081 19.6923C21.4409 19.6923 19.8215 17.4899 19.8215 14.7045Z" fill="#3D544D"/>
<path d="M14.4451 9.00402C14.4434 6.99448 13.6443 5.06774 12.2234 3.64679C10.8024 2.22583 8.87569 1.42679 6.86615 1.42507H-0.000244141V23.4494H4.21028V16.6477H7.12526L12.2427 23.4494H17.4896L11.271 15.2226C12.2634 14.5199 13.0706 13.5871 13.6234 12.504C14.1762 11.4209 14.4582 10.2199 14.4451 9.00402ZM6.93093 12.502H4.21028V5.6356H6.93093C7.84147 5.6356 8.71472 5.99731 9.35857 6.64116C10.0024 7.28501 10.3641 8.15825 10.3641 9.0688C10.3641 9.97934 10.0024 10.8526 9.35857 11.4964C8.71472 12.1403 7.84147 12.502 6.93093 12.502Z" fill="#3D544D"/>
</g>
<defs>
<clipPath id="clip0_1_94">
<rect width="107.53" height="32" fill="white"/>
</clipPath>
</defs>
</svg>
