<svg width="26" height="35" viewBox="0 0 26 35" fill="none" xmlns="http://www.w3.org/2000/svg">
<path fill-rule="evenodd" clip-rule="evenodd" d="M17.2584 0.254251C17.856 -0.183545 18.713 -0.0418545 19.1725 0.570727C21.6189 3.8325 24.5953 9.39561 25.6272 15.5921C26.6662 21.8309 25.7377 28.7957 20.2214 34.5864C19.7109 35.1223 18.8474 35.128 18.2927 34.5991C17.738 34.0702 17.7021 33.207 18.2126 32.6711C23.0237 27.6207 23.8712 21.5717 22.9346 15.9477C21.991 10.2813 19.2404 5.13232 17.0081 2.15613C16.5487 1.54355 16.6607 0.692048 17.2584 0.254251ZM11.52 5.25428C12.117 4.81557 12.9741 4.956 13.4344 5.56793C15.1611 7.86321 17.2567 11.7671 17.9845 16.1264C18.7194 20.5288 18.0629 25.4781 14.134 29.5891C13.6227 30.1241 12.7591 30.1285 12.2052 29.5987C11.6513 29.069 11.6168 28.2058 12.1282 27.6707C15.3499 24.2997 15.9239 20.2678 15.292 16.4831C14.653 12.6554 12.7845 9.16642 11.2726 7.15662C10.8122 6.54469 10.923 5.69298 11.52 5.25428ZM7.15811 10.7114C7.7529 10.2697 8.61055 10.4061 9.07372 11.016C10.0161 12.2568 11.1524 14.3512 11.549 16.7082C11.9532 19.11 11.5917 21.8625 9.39176 24.1406C8.87762 24.673 8.01388 24.673 7.46256 24.1406C6.91123 23.6082 6.88108 22.745 7.39523 22.2126C8.88161 20.6734 9.1559 18.8436 8.85717 17.0684C8.55089 15.2482 7.64563 13.5708 6.9198 12.6152C6.45662 12.0053 6.56332 11.153 7.15811 10.7114ZM3.60827 16.36C3.106 16.36 2.71304 16.7669 2.73057 17.2689C2.7481 17.7708 3.16948 18.1777 3.67175 18.1777C4.17401 18.1777 4.56697 17.7708 4.54944 17.2689C4.53192 16.7669 4.11054 16.36 3.60827 16.36ZM0.00226087 17.2689C-0.0678546 15.261 1.50398 13.6333 3.51305 13.6333C5.52213 13.6333 7.20764 15.261 7.27776 17.2689C7.34787 19.2767 5.77604 20.9044 3.76696 20.9044C1.75789 20.9044 0.0723764 19.2767 0.00226087 17.2689Z" fill="white"/>
</svg>
