<svg width="58" height="35" viewBox="0 0 58 35" fill="none" xmlns="http://www.w3.org/2000/svg">
<path d="M11.7543 1.18873C11.9932 0.532214 12.7533 0 13.452 0H24.2047C24.9034 0 25.276 0.532214 25.0371 1.18873L22.2816 8.75931C22.1147 9.21781 21.6821 9.63544 21.1698 9.83257L14.9178 12.2383C14.5177 12.3923 14.1181 12.3923 13.8301 12.2383L9.32934 9.83257C8.96056 9.63544 8.83195 9.21781 8.99883 8.75931L11.7543 1.18873Z" fill="#424242"/>
<path d="M31.9947 1.18873C32.2337 0.532214 32.9937 0 33.6924 0H36.855C37.5536 0 37.9263 0.532214 37.6873 1.18873L36.822 3.5662C36.583 4.22272 35.823 4.75494 35.1243 4.75494H31.9617C31.2631 4.75494 30.8904 4.22272 31.1294 3.5662L31.9947 1.18873Z" fill="#424242"/>
<path d="M44.645 1.18873C44.8839 0.532214 45.644 0 46.3427 0H57.0954C57.794 0 58.1667 0.532214 57.9277 1.18873L55.3317 8.32114C55.0928 8.97766 54.3327 9.50987 53.6341 9.50987H42.8813C42.1827 9.50987 41.81 8.97766 42.049 8.32114L44.645 1.18873Z" fill="#424242"/>
<path d="M7.21132 13.6704C7.45028 13.0139 8.21036 12.4817 8.90901 12.4817H19.6617C20.3604 12.4817 20.733 13.0139 20.4941 13.6704L17.8981 20.8028C17.6592 21.4594 16.8991 21.9916 16.2004 21.9916H5.4477C4.74904 21.9916 4.37638 21.4594 4.61534 20.8028L7.21132 13.6704Z" fill="#424242"/>
<path d="M25.3873 8.9155C25.6263 8.25899 26.3863 7.72677 27.085 7.72677H37.8377C38.5364 7.72677 38.909 8.25899 38.6701 8.9155L32.6128 25.5578C32.3738 26.2143 31.6137 26.7465 30.9151 26.7465H20.1624C19.4637 26.7465 19.0911 26.2143 19.33 25.5578L25.3873 8.9155Z" fill="#424242"/>
<path d="M40.102 13.6704C40.3409 13.0139 41.101 12.4817 41.7997 12.4817H52.5524C53.2511 12.4817 53.6237 13.0139 53.3848 13.6704L50.7888 20.8028C50.5498 21.4594 49.7897 21.9916 49.0911 21.9916H38.3384C37.6397 21.9916 37.2671 21.4594 37.506 20.8028L40.102 13.6704Z" fill="#424242"/>
<path d="M2.66835 26.1521C2.9073 25.4956 3.66738 24.9634 4.36604 24.9634H15.1188C15.8174 24.9634 16.1901 25.4956 15.9511 26.1521L13.3551 33.2846C13.1162 33.9411 12.3561 34.4733 11.6574 34.4733H0.904723C0.206069 34.4733 -0.166593 33.9411 0.0723621 33.2846L2.66835 26.1521Z" fill="#424242"/>
<path d="M21.1781 30.9071C21.4171 30.2506 22.1771 29.7183 22.8758 29.7183H26.0384C26.737 29.7183 27.1097 30.2506 26.8707 30.9071L26.0054 33.2846C25.7664 33.9411 25.0064 34.4733 24.3077 34.4733H21.1451C20.4465 34.4733 20.0738 33.9411 20.3128 33.2846L21.1781 30.9071Z" fill="#424242"/>
<path d="M35.7185 25.714C35.8854 25.2555 36.318 24.8378 36.8303 24.6407L43.0823 22.2349C43.4824 22.081 43.882 22.081 44.17 22.2349L48.6707 24.6407C49.0395 24.8378 49.1681 25.2555 49.0013 25.714L46.2458 33.2846C46.0068 33.9411 45.2468 34.4733 44.5481 34.4733H33.7954C33.0967 34.4733 32.7241 33.9411 32.963 33.2846L35.7185 25.714Z" fill="#424242"/>
</svg>
