<svg width="45" height="35" viewBox="0 0 45 35" fill="none" xmlns="http://www.w3.org/2000/svg">
<path d="M0.00073676 1.20108C-0.0224275 0.537741 0.496863 0 1.1606 0H11.376C12.0397 0 12.5966 0.537741 12.6197 1.20108L12.8869 8.85026C12.903 9.31352 12.6512 9.73549 12.2396 9.93466L7.21681 12.3654C6.89536 12.521 6.51572 12.521 6.18341 12.3654L0.990833 9.93466C0.565358 9.73549 0.28403 9.31352 0.267852 8.85026L0.00073676 1.20108Z" fill="white"/>
<path d="M19.2297 1.20108C19.2065 0.537741 19.7258 0 20.3896 0H23.3941C24.0578 0 24.6147 0.537741 24.6379 1.20108L24.7217 3.60323C24.7449 4.26657 24.2256 4.80431 23.5619 4.80431H20.5573C19.8936 4.80431 19.3368 4.26657 19.3136 3.60323L19.2297 1.20108Z" fill="white"/>
<path d="M31.2478 1.20108C31.2246 0.537741 31.7439 0 32.4077 0H42.6231C43.2868 0 43.8437 0.537741 43.8668 1.20108L44.1185 8.40754C44.1416 9.07088 43.6224 9.60862 42.9586 9.60862H32.7432C32.0795 9.60862 31.5226 9.07088 31.4995 8.40754L31.2478 1.20108Z" fill="white"/>
<path d="M0.441134 13.8124C0.417969 13.1491 0.93726 12.6113 1.601 12.6113H11.8164C12.4801 12.6113 13.037 13.1491 13.0601 13.8124L13.3118 21.0189C13.335 21.6822 12.8157 22.2199 12.1519 22.2199H1.93654C1.2728 22.2199 0.715953 21.6822 0.692789 21.0189L0.441134 13.8124Z" fill="white"/>
<path d="M15.8969 9.00808C15.8737 8.34474 16.393 7.807 17.0568 7.807H27.2722C27.9359 7.807 28.4927 8.34474 28.5159 9.00808L29.1031 25.8232C29.1263 26.4865 28.607 27.0242 27.9432 27.0242H17.7278C17.0641 27.0242 16.5073 26.4865 16.4841 25.8232L15.8969 9.00808Z" fill="white"/>
<path d="M31.6882 13.8124C31.665 13.1491 32.1843 12.6113 32.8481 12.6113H43.0635C43.7272 12.6113 44.2841 13.1491 44.3072 13.8124L44.5589 21.0189C44.582 21.6822 44.0627 22.2199 43.399 22.2199H33.1836C32.5199 22.2199 31.963 21.6822 31.9399 21.0189L31.6882 13.8124Z" fill="white"/>
<path d="M0.88153 26.4237C0.858366 25.7604 1.37766 25.2226 2.0414 25.2226H12.2568C12.9205 25.2226 13.4774 25.7604 13.5005 26.4237L13.7522 33.6302C13.7754 34.2935 13.2561 34.8312 12.5923 34.8312H2.37694C1.7132 34.8312 1.15635 34.2935 1.13319 33.6302L0.88153 26.4237Z" fill="white"/>
<path d="M20.2783 31.228C20.2551 30.5647 20.7744 30.0269 21.4381 30.0269H24.4427C25.1064 30.0269 25.6633 30.5647 25.6864 31.228L25.7703 33.6302C25.7935 34.2935 25.2742 34.8312 24.6104 34.8312H21.6059C20.9422 34.8312 20.3853 34.2935 20.3622 33.6302L20.2783 31.228Z" fill="white"/>
<path d="M32.1131 25.981C32.097 25.5177 32.3488 25.0958 32.7604 24.8966L37.7832 22.4658C38.1046 22.3103 38.4843 22.3103 38.8166 22.4658L44.0092 24.8966C44.4346 25.0958 44.716 25.5177 44.7322 25.981L44.9993 33.6302C45.0224 34.2935 44.5031 34.8312 43.8394 34.8312H33.624C32.9603 34.8312 32.4034 34.2935 32.3803 33.6302L32.1131 25.981Z" fill="white"/>
</svg>
