<svg width="27" height="35" viewBox="0 0 27 35" fill="none" xmlns="http://www.w3.org/2000/svg">
<path fill-rule="evenodd" clip-rule="evenodd" d="M14.5827 0.125755C15.1096 -0.192572 15.9875 0.114253 16.5437 0.811068C19.5052 4.52135 23.3622 10.6174 25.3792 16.9644C27.41 23.3548 27.5926 30.0836 23.0088 34.7576C22.5846 35.1902 21.7236 35.0282 21.0857 34.396C20.4477 33.7637 20.2745 32.9005 20.6987 32.4679C24.6965 28.3914 24.5789 22.5554 22.7482 16.7947C20.9038 10.9907 17.3381 5.34927 14.6359 1.96383C14.0797 1.26702 14.0559 0.444083 14.5827 0.125755ZM9.65138 3.97234C10.1774 3.65298 11.0553 3.95858 11.6123 4.65493C13.7014 7.26681 16.4149 11.546 17.8357 16.0116C19.2705 20.5212 19.4035 25.3035 16.1367 28.6192C15.7115 29.0508 14.8502 28.8876 14.213 28.2546C13.5757 27.6216 13.4038 26.7587 13.829 26.3271C16.5078 23.6082 16.4386 19.72 15.205 15.843C13.9575 11.922 11.5367 8.09847 9.70744 5.81143C9.15047 5.11509 9.12538 4.2917 9.65138 3.97234ZM6.16679 8.53938C6.69014 8.21672 7.56792 8.5184 8.12738 9.21322C9.26565 10.6269 10.7334 12.9251 11.5047 15.34C12.2907 17.8011 12.3684 20.4614 10.5354 22.2944C10.107 22.7228 9.24483 22.5552 8.60972 21.9201C7.97461 21.285 7.80703 20.4228 8.23542 19.9944C9.47388 18.756 9.45621 16.9941 8.87527 15.1751C8.27964 13.3101 7.10888 11.4705 6.23216 10.3817C5.6727 9.68688 5.64343 8.86205 6.16679 8.53938ZM3.52324 13.454C3.0219 13.3565 2.69448 13.684 2.79193 14.1853C2.88938 14.6866 3.3748 15.172 3.87614 15.2695C4.37748 15.3669 4.70489 15.0395 4.60744 14.5382C4.50999 14.0369 4.02458 13.5514 3.52324 13.454ZM0.0686623 13.6559C-0.321139 11.6506 0.988528 10.3409 2.99389 10.7307C4.99925 11.1205 6.94091 13.0622 7.33071 15.0675C7.72051 17.0729 6.41084 18.3826 4.40549 17.9928C2.40013 17.603 0.458464 15.6613 0.0686623 13.6559Z" fill="#424242"/>
</svg>
