<svg width="68" height="60" viewBox="0 0 68 60" fill="none" xmlns="http://www.w3.org/2000/svg">
<path d="M11.2855 1.19154C11.5152 0.334225 12.3964 -0.174545 13.2537 0.0551724L26.4484 3.59067C27.3057 3.82038 27.8145 4.7016 27.5848 5.55892L24.9358 15.445C24.7754 16.0437 24.2849 16.4968 23.6753 16.6094L16.2362 17.9832C15.7602 18.0711 15.2698 17.9397 14.9015 17.6256L9.14592 12.7162C8.67432 12.314 8.4761 11.6763 8.63653 11.0776L11.2855 1.19154Z" fill="white"/>
<path d="M36.1225 7.84659C36.3522 6.98927 37.2334 6.4805 38.0907 6.71022L41.9715 7.75007C42.8288 7.97979 43.3376 8.861 43.1079 9.71832L42.276 12.8229C42.0463 13.6803 41.165 14.189 40.3077 13.9593L36.427 12.9195C35.5696 12.6897 35.0609 11.8085 35.2906 10.9512L36.1225 7.84659Z" fill="white"/>
<path d="M51.6456 12.006C51.8753 11.1487 52.7565 10.6399 53.6138 10.8696L66.8085 14.4051C67.6658 14.6348 68.1746 15.5161 67.9448 16.3734L65.4492 25.6872C65.2195 26.5445 64.3383 27.0533 63.4809 26.8236L50.2863 23.2881C49.429 23.0584 48.9202 22.1772 49.1499 21.3199L51.6456 12.006Z" fill="white"/>
<path d="M6.91812 17.4908C7.14784 16.6335 8.02905 16.1247 8.88637 16.3544L22.081 19.8899C22.9383 20.1196 23.4471 21.0009 23.2174 21.8582L20.7217 31.172C20.492 32.0294 19.6108 32.5381 18.7535 32.3084L5.55885 28.7729C4.70153 28.5432 4.19276 27.662 4.42248 26.8047L6.91812 17.4908Z" fill="white"/>
<path d="M28.7619 16.6888C28.9916 15.8315 29.8729 15.3227 30.7302 15.5524L43.9248 19.0879C44.7821 19.3176 45.2909 20.1988 45.0612 21.0562L39.238 42.7885C39.0083 43.6458 38.1271 44.1546 37.2698 43.9249L24.0751 40.3894C23.2178 40.1597 22.709 39.2785 22.9388 38.4211L28.7619 16.6888Z" fill="white"/>
<path d="M47.2782 28.3053C47.5079 27.4479 48.3891 26.9392 49.2464 27.1689L62.4411 30.7044C63.2984 30.9341 63.8072 31.8153 63.5775 32.6726L61.0818 41.9865C60.8521 42.8438 59.9709 43.3526 59.1136 43.1229L45.9189 39.5874C45.0616 39.3577 44.5528 38.4764 44.7826 37.6191L47.2782 28.3053Z" fill="white"/>
<path d="M2.55074 33.7901C2.78046 32.9328 3.66168 32.424 4.519 32.6537L17.7136 36.1892C18.571 36.4189 19.0797 37.3001 18.85 38.1574L16.3544 47.4713C16.1246 48.3286 15.2434 48.8374 14.3861 48.6077L1.19147 45.0722C0.334154 44.8425 -0.174616 43.9613 0.0551013 43.1039L2.55074 33.7901Z" fill="white"/>
<path d="M25.724 46.6544C25.9537 45.797 26.8349 45.2883 27.6922 45.518L31.573 46.5578C32.4303 46.7876 32.9391 47.6688 32.7094 48.5261L31.8775 51.6307C31.6478 52.488 30.7665 52.9968 29.9092 52.7671L26.0284 51.7272C25.1711 51.4975 24.6624 50.6163 24.8921 49.759L25.724 46.6544Z" fill="white"/>
<path d="M43.0641 44.0323C43.2246 43.4336 43.715 42.9805 44.3246 42.8679L51.7637 41.4941C52.2398 41.4062 52.7301 41.5376 53.0985 41.8518L58.854 46.7611C59.3256 47.1633 59.5238 47.801 59.3634 48.3997L56.7144 58.2858C56.4847 59.1431 55.6035 59.6518 54.7462 59.4221L41.5516 55.8866C40.6942 55.6569 40.1855 54.7757 40.4152 53.9184L43.0641 44.0323Z" fill="white"/>
</svg>
