<svg width="50" height="43" viewBox="0 0 50 43" fill="none" xmlns="http://www.w3.org/2000/svg">
<path d="M0.0226252 0.986512C-0.105831 0.325665 0.325759 -0.105924 0.986607 0.0225322L11.1575 1.99955C11.8183 2.128 12.4582 2.76786 12.5866 3.42871L14.0679 11.0492C14.1576 11.5107 13.9739 11.8795 13.5958 11.9969L8.98105 13.43C8.68572 13.5218 8.30774 13.4483 7.95216 13.2301L2.39602 9.81991C1.94075 9.54049 1.59361 9.06851 1.5039 8.60699L0.0226252 0.986512Z" fill="#424242"/>
<path d="M19.1678 4.70795C19.0393 4.0471 19.4709 3.61551 20.1317 3.74397L23.1232 4.32544C23.784 4.4539 24.4239 5.09376 24.5523 5.7546L25.0175 8.14774C25.146 8.80859 24.7144 9.24018 24.0535 9.11172L21.0621 8.53025C20.4013 8.40179 19.7614 7.76194 19.6329 7.10109L19.1678 4.70795Z" fill="#424242"/>
<path d="M31.1335 7.03385C31.005 6.373 31.4366 5.94141 32.0975 6.06987L42.2683 8.04688C42.9292 8.17534 43.569 8.81519 43.6975 9.47604L45.093 16.6555C45.2215 17.3163 44.7899 17.7479 44.129 17.6194L33.9582 15.6424C33.2973 15.514 32.6575 14.8741 32.529 14.2133L31.1335 7.03385Z" fill="#424242"/>
<path d="M2.46482 13.5505C2.33636 12.8896 2.76795 12.4581 3.4288 12.5865L13.5997 14.5635C14.2605 14.692 14.9004 15.3318 15.0288 15.9927L16.4243 23.1721C16.5528 23.833 16.1212 24.2645 15.4604 24.1361L5.28951 22.1591C4.62867 22.0306 3.98881 21.3908 3.86035 20.7299L2.46482 13.5505Z" fill="#424242"/>
<path d="M17.0899 11.7879C16.9614 11.127 17.393 10.6954 18.0539 10.8239L28.2247 12.8009C28.8856 12.9294 29.5254 13.5692 29.6539 14.2301L32.9101 30.9821C33.0386 31.6429 32.607 32.0745 31.9461 31.946L21.7753 29.969C21.1144 29.8406 20.4746 29.2007 20.3461 28.5399L17.0899 11.7879Z" fill="#424242"/>
<path d="M33.5757 19.5978C33.4472 18.937 33.8788 18.5054 34.5396 18.6339L44.7105 20.6109C45.3713 20.7393 46.0112 21.3792 46.1397 22.04L47.5352 29.2194C47.6637 29.8803 47.2321 30.3119 46.5712 30.1834L36.4004 28.2064C35.7395 28.078 35.0997 27.4381 34.9712 26.7773L33.5757 19.5978Z" fill="#424242"/>
<path d="M4.90701 26.1145C4.77855 25.4536 5.21014 25.022 5.87099 25.1505L16.0418 27.1275C16.7027 27.256 17.3425 27.8958 17.471 28.5567L18.8665 35.7361C18.995 36.3969 18.5634 36.8285 17.9026 36.7001L7.73171 34.7231C7.07086 34.5946 6.431 33.9547 6.30255 33.2939L4.90701 26.1145Z" fill="#424242"/>
<path d="M24.9825 34.6222C24.854 33.9613 25.2856 33.5298 25.9465 33.6582L28.9379 34.2397C29.5988 34.3681 30.2386 35.008 30.3671 35.6689L30.8322 38.062C30.9607 38.7228 30.5291 39.1544 29.8683 39.026L26.8768 38.4445C26.216 38.316 25.5761 37.6762 25.4477 37.0153L24.9825 34.6222Z" fill="#424242"/>
<path d="M35.9321 31.7208C35.8424 31.2592 36.0261 30.8904 36.4042 30.773L41.019 29.3399C41.3143 29.2482 41.6923 29.3216 42.0479 29.5399L47.604 32.95C48.0593 33.2294 48.4064 33.7014 48.4961 34.163L49.9774 41.7834C50.1058 42.4443 49.6743 42.8759 49.0134 42.7474L38.8426 40.7704C38.1817 40.6419 37.5418 40.0021 37.4134 39.3412L35.9321 31.7208Z" fill="#424242"/>
</svg>
