<svg width="28" height="45" viewBox="0 0 28 45" fill="none" xmlns="http://www.w3.org/2000/svg">
<path fill-rule="evenodd" clip-rule="evenodd" d="M22.0752 0.115713C23.0112 -0.23524 24.0545 0.239078 24.4055 1.17513C26.2742 6.15928 27.9284 14.2492 26.8443 22.4761C25.7528 30.7591 21.8577 39.2887 12.5385 44.7512C11.676 45.2567 10.5671 44.9674 10.0615 44.105C9.55602 43.2425 9.84536 42.1336 10.7078 41.628C18.8356 36.8639 22.2712 29.4699 23.2551 22.0031C24.2465 14.4801 22.7208 6.99381 21.0157 2.44605C20.6648 1.50999 21.1391 0.466667 22.0752 0.115713ZM12.7784 4.49739C13.714 4.14505 14.758 4.61782 15.1103 5.55335C16.4319 9.06241 17.6015 14.7418 16.8412 20.5302C16.0733 26.3756 13.3096 32.4382 6.67736 36.3117C5.81413 36.8159 4.70562 36.5248 4.20145 35.6616C3.69728 34.7983 3.98836 33.6898 4.85159 33.1857C10.29 30.0094 12.5917 25.0841 13.2518 20.0587C13.9194 14.9763 12.8797 9.90192 11.7225 6.8293C11.3701 5.89376 11.8429 4.84973 12.7784 4.49739ZM5.06841 9.93247C6.00226 9.57568 7.04853 10.0435 7.40531 10.9773C8.13123 12.8774 8.77409 15.9286 8.36701 19.0592C7.95217 22.2494 6.41986 25.6223 2.71543 27.761C1.84968 28.2609 0.742645 27.9642 0.242803 27.0985C-0.257039 26.2327 0.0395896 25.1257 0.90534 24.6259C3.40822 23.1808 4.47044 20.9503 4.77706 18.5924C5.09143 16.1747 4.58266 13.7328 4.02354 12.2694C3.66676 11.3355 4.13457 10.2893 5.06841 9.93247Z" fill="white"/>
</svg>
