<svg width="29" height="35" viewBox="0 0 29 35" fill="none" xmlns="http://www.w3.org/2000/svg">
<path fill-rule="evenodd" clip-rule="evenodd" d="M25.404 0.254309C26.2154 -0.183587 27.0702 -0.0418639 27.3132 0.570856C28.607 3.83336 29.5413 9.39774 28.153 15.5956C26.7552 21.8359 22.9732 28.8022 14.7819 34.5942C14.0238 35.1302 13.1029 35.1359 12.7251 34.6069C12.3472 34.0779 12.6554 33.2145 13.4135 32.6785C20.5576 27.6269 23.886 21.5766 25.146 15.9513C26.4156 10.2836 25.5553 5.13348 24.3747 2.15662C24.1317 1.5439 24.5925 0.692205 25.404 0.254309ZM17.2936 5.25547C18.1047 4.81666 18.9602 4.95712 19.2043 5.56919C20.1203 7.86499 20.7832 11.7697 19.8084 16.1301C18.824 20.5334 16.14 25.4839 10.3113 29.5958C9.5526 30.1309 8.63222 30.1353 8.25553 29.6054C7.87884 29.0756 8.18849 28.2122 8.94715 27.677C13.7267 24.3052 15.9549 20.2724 16.8012 16.4868C17.6571 12.6583 17.0692 9.1685 16.2672 7.15824C16.023 6.54617 16.4826 5.69427 17.2936 5.25547ZM10.4642 10.7138C11.2741 10.2721 12.1317 10.4085 12.3798 11.0185C12.8845 12.2595 13.2529 14.3545 12.7292 16.7119C12.1955 19.1143 10.7067 21.8674 7.45249 24.1461C6.69196 24.6786 5.77314 24.6786 5.40026 24.1461C5.02738 23.6135 5.34163 22.7501 6.10216 22.2176C8.30086 20.6781 9.32675 18.8479 9.7212 17.0722C10.1256 15.2517 9.8356 13.5739 9.4469 12.618C9.19886 12.008 9.65433 11.1555 10.4642 10.7138ZM4.42178 16.3637C3.88748 16.3637 3.3062 16.7707 3.12346 17.2728C2.94072 17.7748 3.22572 18.1819 3.76001 18.1819C4.29431 18.1819 4.87559 17.7748 5.05833 17.2728C5.24107 16.7707 4.95607 16.3637 4.42178 16.3637ZM0.221168 17.2728C0.95213 15.2645 3.27723 13.6364 5.41442 13.6364C7.55161 13.6364 8.69159 15.2645 7.96062 17.2728C7.22966 19.2811 4.90456 20.9091 2.76737 20.9091C0.630179 20.9091 -0.509795 19.2811 0.221168 17.2728Z" fill="#424242"/>
</svg>
