<svg width="102" height="32" viewBox="0 0 102 32" fill="none" xmlns="http://www.w3.org/2000/svg">
<g clip-path="url(#clip0_1_98)">
<path fill-rule="evenodd" clip-rule="evenodd" d="M101.697 4.73144C101.808 5.16687 101.32 5.58515 101.066 5.90515C98.9371 8.57144 96.576 11.7257 93.7394 13.7509C93.944 14.8114 93.8354 16.2194 93.4651 16.9966C94.208 17.9429 94.9965 18.8389 95.456 20.064C94.8514 23.264 93.448 25.7463 91.2045 27.3691C89.0148 28.9509 86.056 29.5749 82.6994 30.3451C76.2091 31.8366 65.5303 33.3074 60.7154 29.4423C55.5017 32.4914 44.9657 32.8937 40.0891 29.2617C36.6228 33.6354 22.9486 33.2514 24.9828 24.5726C22.4468 26.4869 18.6971 29.1257 15.12 30.616C10.9715 32.3417 3.11547 32.1474 3.90061 26.2869C3.99547 25.5886 4.29146 25.1943 4.62518 24.5726C3.41147 22.4617 2.64461 20.9966 1.91089 19.1611C1.20804 17.4011 0.136036 15.3977 0.0103221 12.9394C-0.252535 7.70972 3.83661 4.3943 7.88461 2.83658C9.94975 2.0423 11.6274 0.891437 13.6731 0.314294C16.7303 -0.554277 19.3508 1.12229 19.5531 3.92115C23.1074 2.86972 27.4354 1.70972 32.1291 2.38858C35.8663 -0.508564 43.1646 1.28115 47.9611 2.65715C49.0457 2.96915 50.5051 3.77487 51.3085 3.74058C51.9885 3.71315 53.2171 2.79315 53.9303 2.47772C57.296 0.989723 61.696 -0.594277 66.5063 0.222866C67.4171 0.376009 68.2503 0.857151 69.2194 0.942866C69.8777 1.00344 70.6823 0.797723 71.3908 0.76458C82.6331 0.217152 91.992 3.22515 101.697 4.73144ZM70.216 4.37258C69.0674 4.50972 68.2525 5.7623 67.5017 6.17601C67.5565 6.1703 67.608 6.16115 67.5908 6.08458C67.728 5.46972 67.9908 4.97944 68.0434 4.2823C62.0228 2.16801 56.1634 5.2583 51.8514 7.6183C48.4023 9.50401 45.3257 11.7211 43.1657 13.9303C43.9463 12.6046 44.7748 11.2926 45.6994 10.0537C46.6366 8.79544 47.68 7.65715 48.5051 6.53715C46.7017 6.0663 44.8937 5.56915 43.0743 5.18287C40.4891 4.6343 36.8937 3.72572 34.752 4.91315C34.1326 5.25601 33.6251 6.10058 33.0331 6.17601C32.5428 6.23887 31.736 5.8823 31.1326 5.81601C28.9223 5.5703 26.888 5.77487 24.8903 6.17601C23.0194 6.54972 19.064 7.21258 18.5566 8.97029C18.232 10.0994 18.9566 11.1932 18.8286 12.3097C18.7051 13.4069 17.6468 14.8606 17.1097 15.736C16.4526 16.8103 15.784 17.7611 14.6663 18.2606C13.9897 14.9006 14.7257 11.912 15.3006 9.06287C15.6548 7.3063 16.3691 5.50858 15.7543 3.74058C14.0286 3.50172 12.576 4.86287 10.8675 5.54287C7.65832 6.82287 4.08461 7.98972 3.63089 11.6766C3.37489 13.7531 4.15775 15.0731 4.71661 16.5474C5.82093 19.4973 7.31206 22.2873 9.15089 24.8446C8.67089 25.7223 7.54289 25.9509 7.42975 27.1874C7.94061 27.9074 9.00346 28.0034 10.0538 28C13.0891 27.9931 15.5783 26.4709 17.8331 25.2046C22.7428 22.4503 26.0411 18.2114 29.5051 14.2023C30.1131 13.4971 30.6137 12.648 31.4057 12.2183C32.1828 15.7806 30.6708 17.6857 29.5943 20.6046C29.1794 21.7291 27.8708 25.2491 28.5086 26.9166C29.208 28.7509 35.1634 28.8309 36.7417 27.6411C37.5371 27.0411 37.8537 25.6869 38.2811 24.8446C38.8263 23.7611 39.2983 22.8263 39.728 21.8686C39.752 25.8194 42.696 26.9794 45.8788 27.8206C52.6446 29.6034 59.4674 26.4183 63.1588 24.2149C62.6971 27.1417 63.8377 27.4354 66.1451 27.912C72.1108 29.1394 78.1188 27.7234 82.9714 26.5577C87.4205 25.4903 90.9977 24.736 91.6571 20.3337C90.9451 19.72 89.1657 19.7966 87.9485 19.9749C84.36 20.4983 80.8857 22.3063 76.0971 21.9577C75.2228 21.8949 73.336 21.5909 73.2 21.0571C72.9897 20.2251 74.4846 19.6423 75.7371 19.4343C79.3257 18.8286 84.5143 19.44 87.4045 18.3486C88.792 17.8274 90.4663 16.3211 90.2983 14.6526C90.1885 13.5257 88.7131 12.936 87.3131 12.8503C83.3543 12.6034 80.5245 14.9074 76.3703 14.112C76.8891 13.4583 76.9828 12.3806 77.6343 11.8583C80.6731 11.7943 83.6251 12.3954 86.5005 12.2183C90.4983 11.9691 92.752 10.2903 94.6434 8.06972C94.8457 7.82972 95.3531 7.57258 95.1863 7.16915C88.2423 6.11544 78.7771 3.32572 70.216 4.37258ZM56.464 11.3143C56.0183 13.3371 55.0868 15.6526 54.5645 17.8971C57.44 17.9383 60.4731 17.3531 63.4297 17.176C63.8297 16.6434 64.0263 15.9074 64.2445 15.192C64.8377 16.0286 65.2548 17.5943 64.6971 18.7989C60.2068 18.736 56.9794 22.4023 52.5748 22.4057C50.6023 22.408 48.9257 21.2777 49.8594 19.0686C51.1783 15.9543 54.4491 13.7783 56.464 11.3143ZM66.9588 7.97715C67.8045 8.9383 69.656 8.89715 70.7577 9.6023C69.2708 9.98287 67.3988 9.98058 66.0525 10.5017C66.3703 9.6743 66.6548 8.81601 66.9588 7.97715Z" fill="#3D544D"/>
</g>
<defs>
<clipPath id="clip0_1_98">
<rect width="101.714" height="32" fill="white"/>
</clipPath>
</defs>
</svg>
